<svg xmlns="http://www.w3.org/2000/svg" xmlns:xlink="http://www.w3.org/1999/xlink" width="550" height="550"><rect width="100%" height="100%" fill="#DDDDDD"/><path d="M120.97 256.29L119.06 267.57Q120.86 267.20 122.51 267.03Q124.16 266.86 125.69 266.86L125.69 266.86Q129.97 266.86 133.23 268.14Q136.49 269.41 138.71 271.66Q140.92 273.91 142.04 276.93Q143.17 279.95 143.17 283.44L143.17 283.44Q143.17 287.75 141.65 291.31Q140.13 294.88 137.43 297.41Q134.73 299.94 131.04 301.32Q127.34 302.71 122.99 302.71L122.99 302.71Q120.44 302.71 118.16 302.19Q115.87 301.66 113.86 300.78Q111.86 299.90 110.15 298.76Q108.44 297.61 107.09 296.34L107.09 296.34L109.94 292.40Q110.84 291.13 112.31 291.13L112.31 291.13Q113.24 291.13 114.22 291.73Q115.19 292.32 116.45 293.04Q117.71 293.75 119.41 294.35Q121.12 294.95 123.52 294.95L123.52 294.95Q126.07 294.95 128.02 294.13Q129.97 293.30 131.26 291.82Q132.56 290.34 133.21 288.29Q133.87 286.25 133.87 283.85L133.87 283.85Q133.87 279.43 131.30 276.93Q128.73 274.44 123.71 274.44L123.71 274.44Q119.84 274.44 115.79 275.86L115.79 275.86L110.02 274.21L114.52 247.89L141.29 247.89L141.29 251.83Q141.29 253.81 140.06 255.05Q138.82 256.29 135.86 256.29L135.86 256.29L120.97 256.29ZM164.47 256.29L162.56 267.57Q164.36 267.20 166.01 267.03Q167.66 266.86 169.19 266.86L169.19 266.86Q173.47 266.86 176.73 268.14Q179.99 269.41 182.21 271.66Q184.42 273.91 185.54 276.93Q186.67 279.95 186.67 283.44L186.67 283.44Q186.67 287.75 185.15 291.31Q183.63 294.88 180.93 297.41Q178.23 299.94 174.54 301.32Q170.84 302.71 166.49 302.71L166.49 302.71Q163.94 302.71 161.66 302.19Q159.37 301.66 157.36 300.78Q155.36 299.90 153.65 298.76Q151.94 297.61 150.59 296.34L150.59 296.34L153.44 292.40Q154.34 291.13 155.81 291.13L155.81 291.13Q156.74 291.13 157.72 291.73Q158.69 292.32 159.95 293.04Q161.21 293.75 162.91 294.35Q164.62 294.95 167.02 294.95L167.02 294.95Q169.57 294.95 171.52 294.13Q173.47 293.30 174.76 291.82Q176.06 290.34 176.71 288.29Q177.37 286.25 177.37 283.85L177.37 283.85Q177.37 279.43 174.80 276.93Q172.23 274.44 167.21 274.44L167.21 274.44Q163.34 274.44 159.29 275.86L159.29 275.86L153.52 274.21L158.02 247.89L184.79 247.89L184.79 251.83Q184.79 253.81 183.56 255.05Q182.32 256.29 179.36 256.29L179.36 256.29L164.47 256.29ZM232.46 275L232.46 275Q232.46 282.09 230.94 287.32Q229.42 292.55 226.74 295.96Q224.06 299.38 220.40 301.04Q216.74 302.71 212.51 302.71L212.51 302.71Q208.27 302.71 204.65 301.04Q201.03 299.38 198.37 295.96Q195.71 292.55 194.21 287.32Q192.71 282.09 192.71 275L192.71 275Q192.71 267.88 194.21 262.66Q195.71 257.45 198.37 254.04Q201.03 250.63 204.65 248.96Q208.27 247.29 212.51 247.29L212.51 247.29Q216.74 247.29 220.40 248.96Q224.06 250.63 226.74 254.04Q229.42 257.45 230.94 262.66Q232.46 267.88 232.46 275ZM222.89 275L222.89 275Q222.89 269.11 222.03 265.25Q221.17 261.39 219.73 259.10Q218.28 256.81 216.41 255.89Q214.53 254.98 212.51 254.98L212.51 254.98Q210.52 254.98 208.66 255.89Q206.81 256.81 205.38 259.10Q203.96 261.39 203.11 265.25Q202.27 269.11 202.27 275L202.27 275Q202.27 280.89 203.11 284.75Q203.96 288.61 205.38 290.90Q206.81 293.19 208.66 294.11Q210.52 295.03 212.51 295.03L212.51 295.03Q214.53 295.03 216.41 294.11Q218.28 293.19 219.73 290.90Q221.17 288.61 222.03 284.75Q222.89 280.89 222.89 275ZM292.01 289.70L287.09 294.54L274.38 281.82L261.56 294.61L256.64 289.78L269.47 276.91L257.24 264.69L262.12 259.81L274.34 272.04L286.49 259.89L291.44 264.76L279.26 276.95L292.01 289.70ZM331.42 256.29L329.51 267.57Q331.31 267.20 332.96 267.03Q334.61 266.86 336.14 266.86L336.14 266.86Q340.42 266.86 343.68 268.14Q346.94 269.41 349.16 271.66Q351.37 273.91 352.49 276.93Q353.62 279.95 353.62 283.44L353.62 283.44Q353.62 287.75 352.10 291.31Q350.58 294.88 347.88 297.41Q345.18 299.94 341.49 301.32Q337.79 302.71 333.44 302.71L333.44 302.71Q330.89 302.71 328.61 302.19Q326.32 301.66 324.31 300.78Q322.31 299.90 320.60 298.76Q318.89 297.61 317.54 296.34L317.54 296.34L320.39 292.40Q321.29 291.13 322.76 291.13L322.76 291.13Q323.69 291.13 324.67 291.73Q325.64 292.32 326.90 293.04Q328.16 293.75 329.86 294.35Q331.57 294.95 333.97 294.95L333.97 294.95Q336.52 294.95 338.47 294.13Q340.42 293.30 341.71 291.82Q343.01 290.34 343.66 288.29Q344.32 286.25 344.32 283.85L344.32 283.85Q344.32 279.43 341.75 276.93Q339.18 274.44 334.16 274.44L334.16 274.44Q330.29 274.44 326.24 275.86L326.24 275.86L320.47 274.21L324.97 247.89L351.74 247.89L351.74 251.83Q351.74 253.81 350.51 255.05Q349.27 256.29 346.31 256.29L346.31 256.29L331.42 256.29ZM374.92 256.29L373.01 267.57Q374.81 267.20 376.46 267.03Q378.11 266.86 379.64 266.86L379.64 266.86Q383.92 266.86 387.18 268.14Q390.44 269.41 392.66 271.66Q394.87 273.91 395.99 276.93Q397.12 279.95 397.12 283.44L397.12 283.44Q397.12 287.75 395.60 291.31Q394.08 294.88 391.38 297.41Q388.68 299.94 384.99 301.32Q381.29 302.71 376.94 302.71L376.94 302.71Q374.39 302.71 372.11 302.19Q369.82 301.66 367.81 300.78Q365.81 299.90 364.10 298.76Q362.39 297.61 361.04 296.34L361.04 296.34L363.89 292.40Q364.79 291.13 366.26 291.13L366.26 291.13Q367.19 291.13 368.17 291.73Q369.14 292.32 370.40 293.04Q371.66 293.75 373.36 294.35Q375.07 294.95 377.47 294.95L377.47 294.95Q380.02 294.95 381.97 294.13Q383.92 293.30 385.21 291.82Q386.51 290.34 387.16 288.29Q387.82 286.25 387.82 283.85L387.82 283.85Q387.82 279.43 385.25 276.93Q382.68 274.44 377.66 274.44L377.66 274.44Q373.79 274.44 369.74 275.86L369.74 275.86L363.97 274.21L368.47 247.89L395.24 247.89L395.24 251.83Q395.24 253.81 394.01 255.05Q392.77 256.29 389.81 256.29L389.81 256.29L374.92 256.29ZM442.91 275L442.91 275Q442.91 282.09 441.39 287.32Q439.87 292.55 437.19 295.96Q434.51 299.38 430.85 301.04Q427.19 302.71 422.96 302.71L422.96 302.71Q418.72 302.71 415.10 301.04Q411.48 299.38 408.82 295.96Q406.16 292.55 404.66 287.32Q403.16 282.09 403.16 275L403.16 275Q403.16 267.88 404.66 262.66Q406.16 257.45 408.82 254.04Q411.48 250.63 415.10 248.96Q418.72 247.29 422.96 247.29L422.96 247.29Q427.19 247.29 430.85 248.96Q434.51 250.63 437.19 254.04Q439.87 257.45 441.39 262.66Q442.91 267.88 442.91 275ZM433.34 275L433.34 275Q433.34 269.11 432.48 265.25Q431.62 261.39 430.18 259.10Q428.73 256.81 426.86 255.89Q424.98 254.98 422.96 254.98L422.96 254.98Q420.97 254.98 419.11 255.89Q417.26 256.81 415.83 259.10Q414.41 261.39 413.56 265.25Q412.72 269.11 412.72 275L412.72 275Q412.72 280.89 413.56 284.75Q414.41 288.61 415.83 290.90Q417.26 293.19 419.11 294.11Q420.97 295.03 422.96 295.03L422.96 295.03Q424.98 295.03 426.86 294.11Q428.73 293.19 430.18 290.90Q431.62 288.61 432.48 284.75Q433.34 280.89 433.34 275Z" fill="#999999"/></svg>